<svg width="137" height="40" viewBox="0 0 137 40" fill="none" xmlns="http://www.w3.org/2000/svg">
<path d="M75.377 13.1774H72.0887V26.8122H82.5338V23.7664H75.377V13.1774Z" fill="#3C54A5"/>
<path d="M59.0799 26.8122H62.3682V22.3773H68.3395V19.3531H62.3682V16.2302H69.5251V13.1774H59.0799V26.8122Z" fill="#3C54A5"/>
<path d="M84.8728 26.8122H95.3171V23.7664H88.1611V21.4168H94.1324V18.5719H88.1611V16.2302H95.3171V13.1774H84.8728V26.8122Z" fill="#3C54A5"/>
<path d="M132.894 17.2746C132.539 16.4336 132.028 15.6675 131.388 15.0168C130.745 14.3724 129.983 13.8586 129.144 13.5039C128.281 13.133 127.35 12.9418 126.41 12.9418C125.47 12.9418 124.539 13.133 123.675 13.5039C122.838 13.8593 122.078 14.373 121.435 15.0168C120.799 15.6658 120.292 16.43 119.941 17.2685C119.484 18.3387 119.3 19.5055 119.405 20.6644C119.51 21.8233 119.901 22.938 120.543 23.9084C121.185 24.8789 122.058 25.6747 123.084 26.2246C124.109 26.7745 125.255 27.0612 126.419 27.059C127.357 27.0604 128.284 26.8688 129.144 26.4961C130.844 25.789 132.193 24.4371 132.897 22.7367C133.268 21.8724 133.458 20.9413 133.456 20.0009C133.458 19.0631 133.267 18.135 132.894 17.2746ZM129.235 22.8328C128.87 23.2088 128.432 23.5062 127.948 23.707C127.463 23.9077 126.943 24.0075 126.419 24.0002C125.891 24.0083 125.367 23.909 124.878 23.7083C124.39 23.5076 123.947 23.2097 123.578 22.8328C123.017 22.2727 122.635 21.5589 122.48 20.7816C122.325 20.0043 122.404 19.1985 122.707 18.4662C123.01 17.7338 123.523 17.1078 124.182 16.6674C124.841 16.227 125.616 15.9919 126.409 15.9919C127.201 15.9919 127.976 16.227 128.635 16.6674C129.294 17.1078 129.807 17.7338 130.11 18.4662C130.414 19.1985 130.493 20.0043 130.338 20.7816C130.183 21.5589 129.801 22.2727 129.24 22.8328H129.235Z" fill="#3C54A5"/>
<path d="M117.226 13.1774H113.938V26.8122H117.226V13.1774Z" fill="#3C54A5"/>
<path d="M107.447 13.4234L104.699 17.3404L101.951 13.4234H97.8816L102.665 20.2408L97.8816 27.0582H101.951L104.699 23.1411L107.447 27.0582H111.516L106.733 20.2408L111.516 13.4234H107.447Z" fill="#3C54A5"/>
<path d="M50.9227 39.2008V0.800079H0.346485V2.77203H12.5229V8.68183H0.345619V10.6538H12.522V16.5636H7.42976V18.5364H12.522V24.4462H10.0053V26.419H12.522V39.2008H50.9227ZM48.1021 3.62074V36.3801H27.1631V31.5303H39.4746V20.5586H27.1631V12.5443H44.1019V3.62421L48.1021 3.62074Z" fill="url(#paint0_linear_4209_620)"/>
<path d="M5.45694 16.5636H0.345619V18.5364H5.45694V16.5636Z" fill="#5CC0C9"/>
<path d="M2.88049 24.4462H0.345619V26.419H2.88049V24.4462Z" fill="#55AEC2"/>
<path d="M8.03244 24.4462H4.85322V26.419H8.03244V24.4462Z" fill="#55AEC2"/>
<path d="M134.595 25.1651C134.408 25.1651 134.225 25.2206 134.069 25.3246C133.914 25.4286 133.792 25.5764 133.721 25.7494C133.649 25.9224 133.63 26.1127 133.667 26.2963C133.703 26.4799 133.793 26.6486 133.926 26.781C134.058 26.9133 134.227 27.0035 134.41 27.04C134.594 27.0765 134.784 27.0578 134.957 26.9861C135.13 26.9145 135.278 26.7932 135.382 26.6375C135.486 26.4819 135.542 26.2988 135.542 26.1116C135.541 25.8607 135.442 25.62 135.264 25.4426C135.087 25.2651 134.846 25.1653 134.595 25.1651ZM134.595 26.8469C134.449 26.8469 134.307 26.8037 134.186 26.7228C134.065 26.6418 133.971 26.5268 133.915 26.3923C133.859 26.2577 133.845 26.1096 133.873 25.9668C133.902 25.824 133.972 25.6928 134.075 25.5899C134.178 25.487 134.309 25.417 134.452 25.3887C134.595 25.3604 134.743 25.3751 134.877 25.4309C135.012 25.4868 135.127 25.5813 135.208 25.7024C135.288 25.8236 135.331 25.966 135.331 26.1116C135.331 26.3067 135.253 26.4937 135.115 26.6316C134.977 26.7695 134.79 26.8469 134.595 26.8469Z" fill="#3C54A5"/>
<path d="M134.906 26.2831C134.868 26.3473 134.81 26.3973 134.741 26.4253C134.672 26.4533 134.596 26.4578 134.524 26.4382C134.452 26.4185 134.388 26.3757 134.343 26.3164C134.298 26.257 134.273 26.1845 134.273 26.1099C134.273 26.0353 134.298 25.9627 134.343 25.9034C134.388 25.8441 134.452 25.8013 134.524 25.7816C134.596 25.7619 134.672 25.7664 134.741 25.7944C134.81 25.8225 134.868 25.8724 134.906 25.9367L134.914 25.9497H135.142L135.128 25.9133C135.089 25.8081 135.019 25.7174 134.927 25.6535C134.835 25.59 134.725 25.5559 134.613 25.5556C134.512 25.5555 134.413 25.5829 134.327 25.6349C134.241 25.6869 134.171 25.7614 134.124 25.8506C134.077 25.9397 134.055 26.0399 134.061 26.1404C134.067 26.2409 134.101 26.3378 134.158 26.4206C134.215 26.5035 134.294 26.5691 134.386 26.6104C134.478 26.6517 134.579 26.667 134.679 26.6548C134.779 26.6426 134.874 26.6033 134.953 26.5411C135.032 26.479 135.093 26.3963 135.128 26.3021L135.142 26.2649H134.914L134.906 26.2831Z" fill="#3C54A5"/>
<defs>
<linearGradient id="paint0_linear_4209_620" x1="6.43295" y1="-5.28899" x2="50.9227" y2="39.2008" gradientUnits="userSpaceOnUse">
<stop stop-color="#17EAD9"/>
<stop offset="1" stop-color="#3C54A5"/>
</linearGradient>
</defs>
</svg>
