<svg width="220" height="64" viewBox="0 0 220 64" fill="none" xmlns="http://www.w3.org/2000/svg">
<path d="M120.603 21.0839H115.342V42.8996H132.054V38.0263H120.603V21.0839Z" fill="white"/>
<path d="M94.5278 42.8996H99.7891V35.8037H109.343V30.965H99.7891V25.9683H111.24V21.0839H94.5278V42.8996Z" fill="white"/>
<path d="M135.796 42.8996H152.507V38.0263H141.058V34.267H150.612V29.7151H141.058V25.9683H152.507V21.0839H135.796V42.8996Z" fill="white"/>
<path d="M212.63 27.6394C212.062 26.2938 211.245 25.068 210.221 24.027C209.192 22.9959 207.973 22.1738 206.631 21.6062C205.249 21.0129 203.76 20.7069 202.256 20.7069C200.752 20.7069 199.263 21.0129 197.881 21.6062C196.541 22.1749 195.324 22.9969 194.296 24.027C193.278 25.0653 192.467 26.288 191.906 27.6297C191.175 29.3419 190.88 31.2089 191.048 33.0631C191.216 34.9173 191.842 36.7008 192.869 38.2535C193.897 39.8062 195.293 41.0796 196.934 41.9594C198.575 42.8392 200.409 43.298 202.27 43.2945C203.77 43.2967 205.255 42.9901 206.631 42.3938C209.35 41.2624 211.509 39.0994 212.635 36.3787C213.228 34.9958 213.533 33.5062 213.529 32.0014C213.533 30.501 213.226 29.016 212.63 27.6394V27.6394ZM206.777 36.5325C206.192 37.1341 205.491 37.61 204.716 37.9312C203.941 38.2524 203.109 38.412 202.27 38.4004C201.426 38.4133 200.587 38.2544 199.805 37.9333C199.024 37.6122 198.316 37.1356 197.724 36.5325C196.827 35.6364 196.216 34.4942 195.968 33.2506C195.72 32.0069 195.846 30.7177 196.331 29.5459C196.816 28.3742 197.637 27.3726 198.692 26.6679C199.746 25.9632 200.986 25.587 202.254 25.587C203.522 25.587 204.762 25.9632 205.816 26.6679C206.87 27.3726 207.692 28.3742 208.177 29.5459C208.662 30.7177 208.788 32.0069 208.54 33.2506C208.292 34.4942 207.681 35.6364 206.784 36.5325H206.777Z" fill="white"/>
<path d="M187.562 21.0839H182.301V42.8996H187.562V21.0839Z" fill="white"/>
<path d="M171.915 21.4774L167.518 27.7447L163.122 21.4774H156.611L164.264 32.3852L156.611 43.2931H163.122L167.518 37.0258L171.915 43.2931H178.426L170.773 32.3852L178.426 21.4774H171.915Z" fill="white"/>
<path d="M81.4764 62.7213V1.28015H0.554424V4.43528H20.0367V13.891H0.55304V17.0461H20.0353V26.5018H11.8877V29.6583H20.0353V39.1139H16.0086V42.2705H20.0353V62.7213H81.4764ZM76.9633 5.79322V58.2082H43.4611V50.4486H63.1595V32.8938H43.4611V20.071H70.563V5.79876L76.9633 5.79322Z" fill="white"/>
<path d="M8.73115 26.5017H0.55304V29.6582H8.73115V26.5017Z" fill="white"/>
<path d="M4.60884 39.1139H0.55304V42.2704H4.60884V39.1139Z" fill="white"/>
<path d="M12.8519 39.1139H7.7652V42.2704H12.8519V39.1139Z" fill="white"/>
<path d="M215.352 40.2641C215.053 40.2641 214.76 40.3529 214.511 40.5193C214.262 40.6858 214.068 40.9223 213.953 41.199C213.838 41.4758 213.808 41.7803 213.867 42.0741C213.925 42.3679 214.069 42.6377 214.281 42.8495C214.493 43.0613 214.763 43.2056 215.057 43.264C215.35 43.3225 215.655 43.2925 215.932 43.1778C216.208 43.0632 216.445 42.8691 216.611 42.62C216.778 42.371 216.867 42.0782 216.867 41.7786C216.866 41.3771 216.707 40.992 216.423 40.7081C216.139 40.4241 215.754 40.2645 215.352 40.2641V40.2641ZM215.352 42.955C215.119 42.955 214.891 42.8859 214.698 42.7564C214.504 42.627 214.353 42.4429 214.264 42.2276C214.175 42.0123 214.152 41.7755 214.197 41.5469C214.243 41.3184 214.355 41.1086 214.52 40.9439C214.685 40.7792 214.895 40.6672 215.123 40.6219C215.352 40.5766 215.589 40.6001 215.804 40.6895C216.019 40.7788 216.203 40.93 216.332 41.1239C216.461 41.3178 216.53 41.5456 216.53 41.7786C216.529 42.0907 216.405 42.39 216.184 42.6106C215.964 42.8311 215.664 42.955 215.352 42.955V42.955Z" fill="white"/>
<path d="M215.85 42.0529C215.789 42.1557 215.697 42.2357 215.586 42.2805C215.475 42.3253 215.353 42.3326 215.238 42.3011C215.123 42.2696 215.021 42.2011 214.949 42.1062C214.876 42.0113 214.837 41.8952 214.837 41.7758C214.837 41.6564 214.876 41.5403 214.949 41.4454C215.021 41.3505 215.123 41.2821 215.238 41.2506C215.353 41.2191 215.475 41.2263 215.586 41.2711C215.697 41.316 215.789 41.3959 215.85 41.4987L215.863 41.5195H216.227L216.205 41.4613C216.143 41.293 216.031 41.1479 215.883 41.0456C215.735 40.944 215.56 40.8894 215.38 40.889C215.219 40.8888 215.061 40.9326 214.923 41.0158C214.785 41.099 214.673 41.2183 214.598 41.3609C214.523 41.5035 214.488 41.6638 214.498 41.8246C214.508 41.9854 214.561 42.1405 214.653 42.273C214.744 42.4056 214.87 42.5106 215.017 42.5767C215.164 42.6427 215.326 42.6673 215.486 42.6478C215.646 42.6282 215.798 42.5653 215.924 42.4658C216.051 42.3664 216.148 42.2341 216.205 42.0834L216.227 42.0238H215.863L215.85 42.0529Z" fill="white"/>
</svg>
